<?xml version="1.0" encoding="utf-8"?>
<!-- Generator: Adobe Illustrator 19.1.0, SVG Export Plug-In . SVG Version: 6.00 Build 0)  -->
<!DOCTYPE svg PUBLIC "-//W3C//DTD SVG 1.1//EN" "http://www.w3.org/Graphics/SVG/1.1/DTD/svg11.dtd">
<svg version="1.1" id="lightbulb" xmlns="http://www.w3.org/2000/svg" xmlns:xlink="http://www.w3.org/1999/xlink" x="0px" y="0px"
	 viewBox="-2568 -39.4 531.1 787.1" style="enable-background:new -2568 -39.4 531.1 787.1;" xml:space="preserve">
<style type="text/css">
	.st0{fill:#FFFFFF;}

	@-webkit-keyframes fadeIn { from { opacity:0; } to { opacity:1; } }
	@-moz-keyframes fadeIn { from { opacity:0; } to { opacity:1; } }
	@keyframes fadeIn { from { opacity:0; } to { opacity:1; } }

	#sparks, #bulb {
	  opacity:0;  /* make things invisible upon start */
	  -webkit-animation:fadeIn ease-in 1;  /* call our keyframe named fadeIn, use animation ease-in and repeat it only 1 time */
	  -moz-animation:fadeIn ease-in 1;
	  animation:fadeIn ease-in 1;

	  -webkit-animation-fill-mode:forwards;  /* this makes sure that after animation is done we remain at the last keyframe value (opacity: 1)*/
	  -moz-animation-fill-mode:forwards;
	  animation-fill-mode:forwards;

	  -webkit-animation-duration:2s;
	  -moz-animation-duration:2s;
	  animation-duration:2s;
	}

	#bulb {
	  -webkit-animation-delay: 0.5s;
	  -moz-animation-delay: 0.5s;
	  animation-delay: 0.5s;
	}

	#sparks {
	  -webkit-animation-delay: 1.5s;
	  -moz-animation-delay: 1.5s;
	  animation-delay: 1.5s;
	}

</style>
<path id="bulb" class="st0" d="M-2141.4,215.8c-3.9-33.6-25.7-66.6-45.6-93c-18.9-24.9-41.7-48.7-74-55c-17.2-3.4-38.1,3.7-55.6,3.7
	c-17.3,0.1-38.4,0-53.6,9.5c-28.7,18-42.6,58-51.6,88.2c-4.2,14.2-10.1,28.3-13.8,42.5c-4.8,18.7-2.8,41.4-2.6,60.5
	c0.1,17.4,3.3,34.4,4.3,51.8c1.2,20.2,1.1,40.6,2.7,60.7c1.4,17.8,7.3,33.4,14,49.8c7,17.1,12.5,34.2,23.4,49.2
	c8.8,12.1,22.9,15.6,31.7,26.6c9.8,12.3,2.6,38.3,1.6,54.5c-1.2,17.5-1,35-4.6,51.5c-1.4,0.5-2.9,1.1-4.3,1.6
	c-0.3,1.9,0.4,2.9,2,2.8c0-1.1,4.3,1.7,4.8,2.9c2.8,6.6-0.9,22.4-1,30.1c-0.1,3.9,0,7.9-0.3,11.9c-0.7,9,0.5,7.2-5.6,9.3
	c-5.8,2-24.4-6.7-26.9,4.9c-2.9,13.3,25.4,7.1,30.3,4.6c0,10-7.6,32-3.5,40.6c3.9,8.1,29.3,0.7,37.9-0.6c12.3-1.8,24.1-5.3,35.9-9.3
	c14.2-4.8,27.5-13.1,42.3-12.7c10.1,0.3,30.5,4.2,35.9-5.7c3.4-6.2-4.2-19.9-0.3-26.4c5.8-9.7,30.3,2.7,33.7-5.3
	c3.5-8.2-28.9-4.7-30.6-5.9c-5.5-3.8-5.7-28.9-3.7-37.3c0-3,0.7-5.8,2.2-8.4c2.5,0.7,4.2-0.2,5.1-2.6c0.2-1.9-0.6-3-2.4-3.4
	c-3.5-0.8-3.9-3.3-1-7.6c-0.9-13-0.2-26.5-0.5-39.6c-0.2-9.1,0.1-18.3,0.2-27.4c0-0.8,0.8-22.9-4.8-13.7c-2.6,4.3-0.1,16.3-0.3,21.3
	c-0.5,11.4-0.4,10.2-11.7,9.4c-14-1-26.3,0.5-40.2,2.6c-14.8,2.2-29.8,0.8-44.7,1.7c-5,0.3-38.1-2.7-35.9,5.5c33.3,0,65.6-1,98.7-4
	c8-0.7,15.3-0.8,23.3,0.2c11.3,1.4,10.2,1.9,10.4,13c0.2,8.1,0.4,16.3,0.2,24.4c-0.4,11.8,1,11.3-10.2,11.6
	c-17.3,0.4-33.8,4.3-51.4,3.7c-17-0.5-34,0.3-50.8,2.8c-10.8,1.6-29.8,10.3-25.1-7.6c1.2-4.7,11.6-23,5.7-25.8c-0.2,2.8-1.5,4.8-4,6
	c-4.9-7.6,0.9-28.2,1.6-37.7c0.5-5.6-1.2-24.4,3.8-28.4c6.4-5,28.3,6,35.1,6.7c9.3,0.9,17.7-2.4,26.8-4.3c9.3-1.9,16.4-1.4,25.7-1.2
	c12.9,0.3,25.3-3.9,38-4.3c1.4,0,10.3,2.7,11.1,0.3c2-6.2-12.3-5.6-14.1-5.6c-13.7,0.3-29.1,7.9-42.6,3c6.1-8.1,14.8-16.3,19.2-25.3
	c4.7-9.5,4.1-13.3,12.4-20.8c17.4-15.9,19.1-35,17.7-57.5c-0.3-4.3,0.7-27.5-4.6-27.4c-5.8,0.1-0.3,26.2-0.1,29.4
	c1.3,23-2.4,41.3-21.4,55.3c-2.5-11.2-1.3-23.4-8.1-33.5c-6.3-9.3-19.2-16.9-26.9-6.3s0.1,23.8,5.5,33.4c2.7,4.8,5.4,10.8,9.3,14.6
	c5.4,5.3,7,2.5,13.2,3.4c1.2,7.6-13.5,25.3-19.4,30.2c-7.9,6.7-11.1,2.2-16.9,3.8c-1,0.3-2.2,3.9-3.9,4.6
	c-5.4,2.2-12.3,3.7-18.2,3.7c-12.7-0.1-23.5-8.5-36.1-7.5c3.2-7.6,9.3-10.8,13.2-17.6c5.9-10.4,4.5-26.3,3.8-37.7
	c-0.7-10.8-2.4-21.6-2.1-32.5c0.3-11.4-1.7-36.6,3.7-46.1c16.9,6.9,29.2-7.6,30-22.9c0.2-4.3-2.2-15.3,1.9-18.1
	c6.4-4.3,9.6,2.7,11.2,7.4c3.9,12-7,12.4-2.7,22.4c6.7,15.5,23.9,3.2,30-7.4c6.9-12.1,5.8-24.9,6.8-38c1.1-13.2,15.4-21.1,20.1-5.3
	c4.1,14-9.4,35.8-2.2,48c6.1,10.3,19.5-2.4,26.4-7.1c4.7,9.6,13.2,6.1,19.3-0.3c1.1-1.1,9-16.2,10.1-11.6c1.3,5.2-8.1,24.4-9.2,31
	c-1.4,8.8-3.8,17.2-5.5,26c-3.8,20.2-8.9,40.3-10.9,60.7c-1.1,10.5-8.1,59.7,5.6,62.3c-4.1-19.7-2.3-44.3,0-64.4
	c2.3-20,6.5-41.1,11-60.7c3.2-14.2,5.3-47.8,18.6-54.2c2.6-1.3,14.2-0.1,15-3.9c1.8-8.3-13.9-1.9-17.4-1.9
	c1.6-11.9,8.7-22.7,11.7-34.3c2.5-9.7,4.1-18.2,7.9-27.6C-2143.8,257.6-2138.7,239.4-2141.4,215.8
	C-2142,211-2140.7,221.8-2141.4,215.8z M-2359.7,684.1c1,0.9,0.1,1.6-0.3,2.4C-2360.8,685.2-2360.8,685.2-2359.7,684.1z
	 M-2223.6,688.3c-0.5,12.3-13.8,9.6-23.9,8.5c-14.2-1.6-22.9,1.4-36.2,7.4c-26.2,11.7-52.4,13.7-80.4,17.2c0.5-7.5,1.6-14.9,2.6-22
	c0.7-5-0.6-12.6,4.6-16.4c5-3.6,17.3-3.3,23.1-4.4c8.1-1.6,16.2-2.6,24.4-3.5c17.6-1.9,35.1-2.9,52.6-4.3c7.6-0.6,20.5-5.2,28-3.5
	c6.8,1.6,3.5-2.4,5.8,4.6C-2221.8,675.7-2223.5,684.6-2223.6,688.3C-2223.7,690.1-2223.3,681.7-2223.6,688.3z M-2358,622.7
	c0.6-5.5,36.4-6.7,42.5-7.2c16.7-1.2,32.8,0.5,49.4,0.3c10.3-0.1,19.9-2,30-3.3c2.1-0.3,9.2-2.1,10.9-1c3.6,2.3,1,2.4,2,6.7
	c1.7,7.1-0.8,17.2-0.6,24.7c0.1,3.3,1.6,9.9,0.4,12.9c-2.5,6.3,0.7,2-8,4.8c-15.9,5.2-35.1,3-51.6,4.8c-16.8,1.9-33.9,2.9-50.5,6.1
	c-5.8,1.1-15.4,5.1-21.4,3.5c-7.4-2-4.7-4.8-4.1-13C-2358.1,647.8-2359.4,636.2-2358,622.7C-2357.8,620.8-2358.3,625.3-2358,622.7z
	 M-2255,471.5c-9.5,3.7-11.5-1.7-16.3-10.6c-3.4-6.3-13.7-28.4-3.6-33.6C-2257.9,418.7-2244.8,467.6-2255,471.5z M-2146.7,243.5
	c-2.3,16.5-11.5,29.9-15.7,45.6c-3.9,14.7-5.7,29.1-12.6,43.2c-2.1,4.2-6.9,12.3-6.7,2.2c0.1-6.7,8.1-12.2,10.5-18.8
	c0.7-2.1,5.4-9.7-0.4-9.5c-3.6,0.2-8.2,14.2-10.6,16.7c-0.7-3.3-1.5-13.7-6.4-7.4c-1.3,1.6,1.5,9.9,1.6,11.9
	c0.4,9.4,1.2,22.6-7.5,28.8c-13.9,9.9-8.3-10.4-7.1-18.5c1.9-12.8-0.7-26.4,9.1-36.3c3.2-3.2,13.3-6.9,8.8-11
	c-1.3-1.2-12.7,3.1-14.1,4.4c-2.1,2.1-3.8,8.5-4.7,11.2c-3.7,11.4-3.8,23.8-6,35.6c-2.8,14.9-9.6,15.4-21.4,23.1
	c-6.3-14.6,13.2-51.4-5.8-60.4c-25.4-11.9-20.8,33.1-24.3,43.7c-2.9,8.7-6.7,18.1-16.6,20.9c-8.8,2.5-8.6,0.7-7.7-6.9
	c0.9-7.7,5.6-9.7,1.9-19.8c-3-8.1-7.4-11.7-15.8-9.3c-0.4-5.1,3.5-54.4,1.4-54.6c-5.5-0.7-6.4,50.2-6.6,54.8
	c-0.5,8.9,1.3,23-1.9,30.9c-2.6,6.6-15.4,18.1-22.5,10.2c-5.9-6.6,0.1-24,0.7-32c0.2-2.2-0.7-10.7,0.7-13c3.6-5.7,2.9-1,8-4.3
	c1.2-0.8,8.1,1,6-3.4c-2-4-13.3-2-17-2.2c-3.5-0.2-17.2-3.5-13.7,4c0.8,1.8,10.1-0.1,11.8,2.2c2.6,3.4-0.5,12.9-0.9,17.2
	c-1.1,12-2.6,24.1-3.4,36.1c-1.5,24.1-2.9,47.6-1.5,71.7c0.6,10.6,2.4,22.3,0.4,32.8c-2.2,11.8-10.2,18.6-18.1,27.1
	c-8.7-9.1-20-12.8-28.9-21.1c-9.9-9.2-14.6-20.8-19.3-33.1c-10.3-26.6-22.6-49.6-24.5-78.6s-3.5-57.7-6.2-86.7
	c-2.3-24.1-4.1-56.6,2.7-79.7c6.9-23.4,12.4-52.3,24-73.5c10.3-18.8,22-44.5,42.4-54.4c21.1-10.2,51.1-6.6,74-8.4
	c11.6-0.9,23.2-3,34.3,0.7c12.1,4,22.3,9,32.6,16.4c21.6,15.3,40,40.2,52.6,63.4C-2156.1,182.7-2142.3,211.6-2146.7,243.5
	C-2147.2,247.1-2146.2,239.7-2146.7,243.5z"/>
<g id="sparks">
	<path class="st0 s1" d="M-2112,380.5c4.1,1.7,34.5,12.5,31.4,17.2c-2.3,3.5-38.5-11.8-38.2-17.3C-2118.6,377-2112.5,376.9-2112,380.5
		C-2107.9,382.1-2112.4,377.6-2112,380.5z"/>
	<path class="st0 s2" d="M-2129.3,462.9c5.6,5.6,12,16.2,18,10c-3.2-2.4-6.7-5.3-9.4-8.4c-1-1.2-6.2-9.9-7.1-10.3
		C-2135.8,450.5-2135.4,456.8-2129.3,462.9C-2125.1,467.2-2131.2,461-2129.3,462.9z"/>
	<path class="st0" d="M-2451.6,112.9c-8.5,3.1-21.3-1.5-29.4-4.2c-2.2-0.7-18.6-6.4-11.5-9.6c2.5-1.1,14,5.7,17.3,6.7
		C-2467.5,108.1-2458.5,109.1-2451.6,112.9C-2455.8,114.4-2452.8,112.2-2451.6,112.9z"/>
	<path class="st0 s3" d="M-2211.2,10.8c-1.9,7.8-3.1,17-6.5,24.3c-2,4.3-5,11.5-5.9,3.4c-0.6-5.5,4.4-20.3,6.7-25.5
		C-2212.7,2.8-2215.4,10-2211.2,10.8C-2212,14.2-2211.3,10.8-2211.2,10.8z"/>
	<path class="st0 s4" d="M-2136.1,112.7c6.6,9.3-15.9,12.1-7.8,17.3c-4.2,1.9-11.1,6.9-11-1.2C-2154.7,122.1-2140.7,116.2-2136.1,112.7
		C-2133.8,115.9-2137.6,113.9-2136.1,112.7z"/>
	<path class="st0 s5" d="M-2368.3,34.9c-7.1,0.6-21-27.3-18.6-28.3C-2381.3,4.3-2369.8,31.3-2368.3,34.9
		C-2371,35.1-2368.9,33.6-2368.3,34.9z"/>
	<path class="st0" d="M-2413.4,80.9c-6.6,3.5-31.1-14.9-27.7-22.6C-2432.3,65.9-2423.2,74.9-2413.4,80.9
		C-2416.7,82.7-2414,80.5-2413.4,80.9z"/>
	<path class="st0 s6" d="M-2104.3,310.3c4.9-1.3,21.6-13,26.9-7.7C-2074.1,305.8-2105.8,318.3-2104.3,310.3
		C-2102.8,309.9-2104.3,310.6-2104.3,310.3z"/>
	<path class="st0" d="M-2300,11.5c0.2,2.1-6.5,1.6-8,1c-2.4-1-12.7-15.1-13.6-18c-2.5-8.5,3.7-1.7,6.2,1
		C-2309.8,1.5-2308,7.6-2300,11.5C-2299.9,12.9-2304.6,9.3-2300,11.5z"/>
	<path class="st0" d="M-2490.3,341.3c-5.2,1.8-26.3-11-23.5-12.8C-2508.8,325.3-2494.2,338-2490.3,341.3
		C-2494.4,342.8-2491.5,340.3-2490.3,341.3z"/>
	<path class="st0" d="M-2475.2,397.1c-2-0.7-26.9-6.7-22.5-11.1C-2494.6,383-2475.8,392.7-2475.2,397.1
		C-2480.3,395.2-2475.5,394.6-2475.2,397.1z"/>
	<path class="st0" d="M-2498.6,199.2c0.2,0.7,0.3,1.4,0.5,2.1c-3.5,1.9-24.9-10.9-21.4-14.5C-2515.8,182.9-2503,198.7-2498.6,199.2
		C-2498.4,200.1-2502.4,198.8-2498.6,199.2z"/>
	<path class="st0" d="M-2104.2,252.7C-2073.4,237.9-2105.5,265.1-2104.2,252.7C-2101,251.1-2104.3,253.5-2104.2,252.7z"/>
	<path class="st0" d="M-2526.6,257.2c4.5,4.5,9.8,7.9,15.5,10.7C-2516.5,272.2-2532.7,263.3-2526.6,257.2
		C-2522.1,261.7-2529.7,260.3-2526.6,257.2z"/>
	<path class="st0" d="M-2444.5,453.6c0-1.9,1-2.9,2.8-3c3.1,1.8-10.4,8.6-16.4,3.1C-2465.2,447.1-2445.5,453.2-2444.5,453.6
		C-2444.2,452.6-2446.9,452.7-2444.5,453.6z"/>
	<path class="st0" d="M-2108.3,191.8c0-3.3-4.9-1.6-7.7-1.4C-2117.3,183.5-2094.2,185.2-2108.3,191.8
		C-2108.3,190.8-2106.8,191.1-2108.3,191.8z"/>
	<path class="st0" d="M-2091.1,387.5c-1.1,0.2-1.8-0.2-2.1-1.2C-2092.2,386.2-2091.5,386.6-2091.1,387.5
		C-2092,387.3-2091.7,386.9-2091.1,387.5z"/>
</g>
</svg>
